<svg xmlns="http://www.w3.org/2000/svg" width="256" height="256" viewBox="0 0 256 256"><path d="M80 176v16h16v-32H80z" fill="#292653" fill-rule="evenodd"/><path d="M48 168v8H32v16h16v-16h32v-16H48zm48 16v8h16v-16H96z" fill="#232650" fill-rule="evenodd"/><path d="M48 184v8h32v-16H48z" fill="#312352" fill-rule="evenodd"/><path d="M80 176v16h16v-32H80z" fill="#292653" fill-rule="evenodd"/><path d="m80.26 152 .038 8H96v16h16v32H96v16h32v-64H96v-16H80.223zM32 168v8h16v-16H32zm16 32v8h32v-16H48z" fill="#334863" fill-rule="evenodd"/><path d="M64 152v8h16v-16H64zm16 48v8h32v-16H80z" fill="#416181" fill-rule="evenodd"/><path d="M48 152v8h16v-16H48z" fill="#91c8dd" fill-rule="evenodd"/><path d="M32 144v16h16v-16h16v-16H32z" fill="#264b57" fill-rule="evenodd"/><path d="M208 176v16h16v-32h-16zm-48 8v8h16v-16h-16z" fill="#364855" fill-rule="evenodd"/><path d="M192 120v8h-16v16h-32v96h16v-64h16v-16h16v-16h16v-32h-16zM80 232v8h16v-16H80z" fill="#576768" fill-rule="evenodd"/><path d="M48 216v8h48v-16H48z" fill="#748694" fill-rule="evenodd"/><path d="M80 40v8h16V32H80zm112 160v24h16v-16h16v-16h16v-16h-16v16h-16v-16h-16zm-176 0v8h16v-16H16z" fill="#5a636c" fill-rule="evenodd"/><path d="M224 160v16h16v-32h-16zM16 176v16h16v16h16v-16H32v-32H16zm160 40v8h16v-16h-16z" fill="#788091" fill-rule="evenodd"/><path d="M16 128v32h16V96H16zm112 56v24h16v-48h-16zm48.139 7.923-.199 15.924 7.914-.174 7.914-.173.132-15.75.133-15.75h-15.696zM177.875 178c-.479 3.835-.407 5.707.274 7.119.429.89.483 1.915.12 2.278-1.198 1.198-1.066 3.27.207 3.27 1.141 0 1.362-3.501.389-6.167-.201-.55.085-1.113.635-1.25s1.056.2 1.125.75.238 1.225.375 1.5c.48.96.626 7.007.19 7.857-.242.471-.853.246-1.357-.5l-.916-1.357.16 1.5c.327 3.06-.088 4.112-1.327 3.367l-1.25-.751 1.226 1.516 1.226 1.516-1.226 1.247c-.674.686-.776 1.103-.226.926s1 .129 1 .679-.414.862-.919.694-.404.314.226 1.073l1.145 1.381-1.009 1.009-1.01 1.01h1.49c.819 0 1.276-.344 1.017-.765-.26-.42-.055-1.022.455-1.337.764-.473.803-3.389.057-4.315-.618-.766-.472-2.981.302-4.565l.885-1.814 1.42 1.178c.78.648 1.143 1.625.805 2.171-.374.605-.965.462-1.511-.363l-.896-1.357.477 2.873c.263 1.58.707 3.101.987 3.381s.073 1.322-.459 2.317l-.967 1.808 1.027.635c.565.349.963.264.884-.19-.335-1.928.151-3.601.844-2.907.412.412.75 1.162.75 1.666s.338.917.75.917h1.405c.36 0-.119-.855-1.065-1.901l-1.72-1.9 1.065-.659c.586-.362 1.075-.294 1.087.151s.848 1.883 1.857 3.195l1.835 2.386.797-1.29c.471-.762.4-1.045-.173-.691-1.023.632-4.986-5.179-4.532-6.646.145-.471-.223-1.443-.819-2.161l-1.084-1.306L185 194.5l1.097-.678L185 192.5l-1.097-1.322L185 190.5l1.097-.678L185 188.5l-1.097-1.322L185 186.5l1.097-.678-1.061-1.278-1.061-1.279 1.372-1.138 1.372-1.139.055 7.756c.062 8.925.638 12.096 2.539 13.998l1.354 1.353v-1.503c0-.827-.375-1.272-.834-.989s-.867.151-.91-.294c-.042-.445-.295-1.709-.564-2.809s-.522-5.5-.563-9.778c-.042-4.277-.444-8.004-.893-8.282-.448-.277-.539-1.277-.2-2.222s.285-1.422-.119-1.06c-.627.563-.891 1.4-1.523 4.842-.05.275-.509-.16-1.019-.966-.551-.871-.562-1.907-.028-2.55l.899-1.084h-2.29c-1.259 0-2.29.565-2.29 1.256s.353 1.038.783.772 1.257.401 1.837 1.483l1.052 1.968-1.002.619c-1.01.624-1.411-.148-1.038-1.998.111-.55-.132-.666-.54-.259-1.122 1.123-3.384-1.185-2.759-2.814.302-.785.275-1.427-.059-1.427s-.663.45-.732 1m10.516.417c.091.595.411 1.533.711 2.083.301.55.498 4.521.439 8.825s.138 7.977.438 8.162.545-4.274.545-9.908v-10.246h-1.149c-.632 0-1.075.488-.984 1.084m-6.613 6.913c.489.644.82 2.881.736 4.972-.152 3.759.799 5.619 1.933 3.783.322-.521.106-1.243-.479-1.605l-1.065-.658L184 190.5l1.097-1.322L184 188.5l-1.097-.678 1.171-1.411c.644-.776 1.003-1.445.798-1.488s-1.185-.23-2.178-.419l-1.806-.343zm1.402 12.954c-.676.813-.726 1.82-.138 2.75.51.806.968 1.241 1.017.966s.278-1.512.509-2.75c.478-2.564.135-2.802-1.388-.966" fill="#99a6b0" fill-rule="evenodd"/><path d="M32 120v8h16v-16H32zm32 16v8h16v-16H64zm32 16v8h16v-16H96zm32 64v8H96v16h48v-32h-16z" fill="#78858e" fill-rule="evenodd"/><path d="M160 48v16h32v48h-16v16h16v-16h16v16h16V80h-16V48h-32V32h-16zm80 112v32h-16v16h-16v16h16v-16h16v-16h16v-64h-16zm-80 56v24h-32v16h32v-16h16v-48h-16z" fill="#0f0e10" fill-rule="evenodd"/><path d="M32 40v40H16v16H0v112h16v16h32v16h32v16h48v-16H80v-16H48v-16H16V96h16V80h16V16h32v16h48v16h32V32h16V0h-16v32h-32V16H80V0H32zm160 0v8h16V32h-16zm32 80v8h32v-16h-32zm-64 16v8h16v-16h-16zm16 96v8h32v-16h-32z" fill="#383a3b" fill-rule="evenodd"/><path d="M48 48v32h16v16h16V32H64V16H48zm112 24v8h-16v16h-16v32h32v-16h16V96h16V64h-32z" fill="#f9fcfc" fill-rule="evenodd"/><path d="M64 24v8h16V16H64zm48 16v8h16V32h-16zM80 72v24h16V48H80zm64-8v16h-16v16h-16v16h16V96h16V80h16V48h-16zm32 40v8h-16v16h-16v16h16v-16h16v-16h16V96h-16zm1.772 74.25c-.464 1.315-.288 5.215.35 7.75.224.89-.199 1.375-1.041 1.194l-1.42-.307 1.161 1.399c.638.769.94 1.619.669 1.889-.27.271.123.492.872.492 1.255 0 1.528-3.355.502-6.167-.201-.55.085-1.113.635-1.25s1.007.088 1.015.5.263 1.2.565 1.75c.468.852.486 5.811.03 8.25-.077.412-.602.075-1.167-.75l-1.026-1.5.16 1.5c.327 3.06-.088 4.112-1.327 3.367l-1.25-.751 1.226 1.516 1.226 1.516-1.226 1.247c-.674.686-.776 1.103-.226.926s1 .129 1 .679-.414.862-.919.694-.404.314.226 1.073l1.145 1.381-1.009 1.009-1.01 1.01h1.49c.819 0 1.276-.344 1.017-.765-.26-.42-.055-1.022.455-1.337.764-.473.803-3.389.057-4.315-.618-.766-.472-2.981.302-4.565l.885-1.814 1.42 1.178c.78.648 1.143 1.625.805 2.171-.374.605-.965.462-1.511-.363-.577-.875-.684-.29-.3 1.643.728 3.666.741 4.434.117 7.083l-.491 2.084h1.444c.917 0 1.095-.349.488-.956-1.161-1.161-.27-3.927 1.01-3.136.501.31.684.931.406 1.381s.129 1.343.904 1.987l1.408 1.169-.213-1.455c-.118-.801-.753-2.105-1.411-2.898-.659-.794-.898-1.743-.532-2.109.763-.763 4.411 4.389 3.804 5.371-.219.355.181.646.89.646s1.29-.581 1.29-1.29-.293-1.108-.65-.887c-.797.492-4.579-5.655-4.211-6.845.145-.471-.223-1.443-.819-2.161l-1.084-1.306L185 194.5l1.097-.678L185 192.5l-1.097-1.322L185 190.5l1.097-.678L185 188.5l-1.097-1.322L185 186.5l1.097-.678-1.061-1.278-1.061-1.279 1.372-1.138 1.372-1.139.055 7.756c.065 9.272.638 12.132 2.847 14.2.913.856 1.365 1.025 1.004.375-.362-.649-.24-1.439.27-1.754.956-.591.958-2.313.005-4.065-.3-.55-.501-5.312-.447-10.583l.097-9.584h-1.162c-.939 0-1.175 2.38-.34 3.417.111.137.315 3.85.452 8.25s.341 8.113.452 8.25c.739.917.711 3.84-.041 4.305-.501.31-.945.199-.988-.246-.042-.445-.295-1.709-.564-2.809s-.522-5.5-.563-9.778c-.042-4.277-.444-8.004-.893-8.282-.448-.277-.539-1.277-.2-2.222s.285-1.422-.119-1.06c-.627.563-.891 1.4-1.523 4.842-.05.275-.509-.16-1.019-.966-.551-.871-.562-1.907-.028-2.55l.899-1.084h-2.29c-1.259 0-2.29.565-2.29 1.256s.353 1.038.783.772 1.257.401 1.837 1.483l1.052 1.968-1.002.619c-1.01.624-1.411-.148-1.038-1.998.111-.55-.132-.666-.54-.259-1.122 1.123-3.384-1.185-2.759-2.814.302-.785.323-1.427.048-1.427s-.699.563-.942 1.25m4.006 7.08c.489.644.82 2.881.736 4.972-.152 3.759.799 5.619 1.933 3.783.322-.521.106-1.243-.479-1.605l-1.065-.658L184 190.5l1.097-1.322L184 188.5l-1.097-.678 1.171-1.411c.644-.776 1.003-1.445.798-1.488s-1.185-.23-2.178-.419l-1.806-.343zm1.402 12.954c-.676.813-.726 1.82-.138 2.75.51.806.968 1.241 1.017.966s.278-1.512.509-2.75c.478-2.564.135-2.802-1.388-.966" fill="#a2a4ac" fill-rule="evenodd"/><path d="M96 64v32H64V80H32v32h16v16h32v16h32v16h32v-32h-16v-16h-16V96h16V80h16V48h-32V32H96zm112 72v8h-16v16h-16v16h32v-16h16v-16h16v-16h-32z" fill="#cccdd1" fill-rule="evenodd"/></svg>